# MagicaVoxel @ Ephtracy

# group
o 

# material
mtllib Paintings model.mtl
usemtl palette

# normals
vn -1 0 0
vn 1 0 0
vn 0 0 1
vn 0 0 -1
vn 0 -1 0
vn 0 1 0

# texcoords
vt 0.0449219 0.5
vt 0.0683594 0.5
vt 0.564453 0.5

# verts
v 0.6 2 -0.9
v 0.6 2 -3.2
v 0.6 2.1 -0.9
v 0.6 2.1 -3.2
v 0.6 2.2 -0.9
v 0.6 2.2 -3.2
v 2.9 2.1 -1.2
v 2.9 2.1 -2.9
v 2.9 2.2 -1.2
v 2.9 2.2 -2.9
v 1.1 2.1 -1.2
v 1.1 2.1 -2.9
v 1.1 2.2 -1.2
v 1.1 2.2 -2.9
v 3.4 2 -0.9
v 3.4 2 -3.2
v 3.4 2.1 -0.9
v 3.4 2.1 -3.2
v 3.4 2.2 -0.9
v 3.4 2.2 -3.2
v 0.6 2 -0.9
v 0.6 2.1 -0.9
v 0.6 2.2 -0.9
v 3.4 2 -0.9
v 3.4 2.1 -0.9
v 3.4 2.2 -0.9
v 1.1 2.1 -2.9
v 1.1 2.2 -2.9
v 2.9 2.1 -2.9
v 2.9 2.2 -2.9
v 1.1 2.1 -1.2
v 1.1 2.2 -1.2
v 2.9 2.1 -1.2
v 2.9 2.2 -1.2
v 0.6 2 -3.2
v 0.6 2.1 -3.2
v 0.6 2.2 -3.2
v 3.4 2 -3.2
v 3.4 2.1 -3.2
v 3.4 2.2 -3.2
v 0.6 2 -0.9
v 3.4 2 -0.9
v 1.1 2 -1.2
v 2.9 2 -1.2
v 1.1 2 -2.9
v 2.9 2 -2.9
v 0.6 2 -3.2
v 3.4 2 -3.2
v 1.1 2.1 -1.2
v 2.9 2.1 -1.2
v 1.1 2.1 -2.9
v 2.9 2.1 -2.9
v 0.6 2.2 -0.9
v 3.4 2.2 -0.9
v 1.1 2.2 -1.2
v 2.9 2.2 -1.2
v 1.1 2.2 -2.9
v 2.9 2.2 -2.9
v 0.6 2.2 -3.2
v 3.4 2.2 -3.2

# faces
f 3/2/1 2/2/1 1/2/1
f 4/2/1 2/2/1 3/2/1
f 5/1/1 4/1/1 3/1/1
f 6/1/1 4/1/1 5/1/1
f 9/1/1 8/1/1 7/1/1
f 10/1/1 8/1/1 9/1/1
f 11/1/2 12/1/2 13/1/2
f 13/1/2 12/1/2 14/1/2
f 15/2/2 16/2/2 17/2/2
f 17/2/2 16/2/2 18/2/2
f 17/1/2 18/1/2 19/1/2
f 19/1/2 18/1/2 20/1/2
f 24/2/3 22/2/3 21/2/3
f 25/1/3 23/1/3 22/1/3
f 25/2/3 22/2/3 24/2/3
f 26/1/3 23/1/3 25/1/3
f 29/1/3 28/1/3 27/1/3
f 30/1/3 28/1/3 29/1/3
f 31/1/4 32/1/4 33/1/4
f 33/1/4 32/1/4 34/1/4
f 35/2/4 36/2/4 38/2/4
f 36/1/4 37/1/4 39/1/4
f 38/2/4 36/2/4 39/2/4
f 39/1/4 37/1/4 40/1/4
f 43/2/5 42/2/5 41/2/5
f 44/2/5 42/2/5 43/2/5
f 45/2/5 43/2/5 41/2/5
f 45/3/5 44/3/5 43/3/5
f 46/2/5 42/2/5 44/2/5
f 46/3/5 44/3/5 45/3/5
f 47/2/5 45/2/5 41/2/5
f 47/2/5 46/2/5 45/2/5
f 48/2/5 42/2/5 46/2/5
f 48/2/5 46/2/5 47/2/5
f 49/3/6 50/3/6 51/3/6
f 51/3/6 50/3/6 52/3/6
f 53/1/6 54/1/6 55/1/6
f 55/1/6 54/1/6 56/1/6
f 53/1/6 55/1/6 57/1/6
f 56/1/6 54/1/6 58/1/6
f 53/1/6 57/1/6 59/1/6
f 57/1/6 58/1/6 59/1/6
f 58/1/6 54/1/6 60/1/6
f 59/1/6 58/1/6 60/1/6
