# Blender v2.81 (sub 16) OBJ File: ''
# www.blender.org
mtllib Paintings model.mtl
o ObjObject
v -1.400000 -0.013333 1.150000
v -1.400000 -0.113332 -1.150000
v -1.400000 -0.113333 1.150000
v -1.400000 -0.013332 -1.150000
v -1.400000 0.086667 1.150000
v -1.400000 0.086668 -1.150000
v 0.900000 0.086667 0.850000
v 0.900000 -0.013332 -0.850000
v 0.900000 -0.013333 0.850000
v 0.900000 0.086668 -0.850000
v -0.900000 -0.013333 0.850000
v -0.900000 -0.013332 -0.850000
v -0.900000 0.086667 0.850000
v -0.900000 0.086668 -0.850000
v 1.400000 -0.113333 1.150000
v 1.400000 -0.113332 -1.150000
v 1.400000 -0.013333 1.150000
v 1.400000 -0.013332 -1.150000
v 1.400000 0.086667 1.150000
v 1.400000 0.086668 -1.150000
v 1.400000 -0.113333 1.150000
v -1.400000 -0.013333 1.150000
v -1.400000 -0.113333 1.150000
v 1.400000 -0.013333 1.150000
v -1.400000 0.086667 1.150000
v 1.400000 0.086667 1.150000
v 0.900000 -0.013332 -0.850000
v -0.900000 0.086668 -0.850000
v -0.900000 -0.013332 -0.850000
v 0.900000 0.086668 -0.850000
v -0.900000 -0.013333 0.850000
v -0.900000 0.086667 0.850000
v 0.900000 -0.013333 0.850000
v 0.900000 0.086667 0.850000
v -1.400000 -0.113332 -1.150000
v -1.400000 -0.013332 -1.150000
v 1.400000 -0.113332 -1.150000
v -1.400000 0.086668 -1.150000
v 1.400000 -0.013332 -1.150000
v 1.400000 0.086668 -1.150000
v -0.900000 -0.113333 0.850000
v 1.400000 -0.113333 1.150000
v -1.400000 -0.113333 1.150000
v 0.900000 -0.113333 0.850000
v -0.900000 -0.113332 -0.850000
v 0.900000 -0.113332 -0.850000
v -1.400000 -0.113332 -1.150000
v 1.400000 -0.113332 -1.150000
v -0.900000 -0.013333 0.850000
v 0.900000 -0.013333 0.850000
v -0.900000 -0.013332 -0.850000
v 0.900000 -0.013332 -0.850000
v -1.400000 0.086667 1.150000
v 1.400000 0.086667 1.150000
v -0.900000 0.086667 0.850000
v 0.900000 0.086667 0.850000
v -0.900000 0.086668 -0.850000
v 0.900000 0.086668 -0.850000
v -1.400000 0.086668 -1.150000
v 1.400000 0.086668 -1.150000
vt 0.068359 0.500000
vt 0.068359 0.500000
vt 0.068359 0.500000
vt 0.068359 0.500000
vt 0.044922 0.500000
vt 0.044922 0.500000
vt 0.044922 0.500000
vt 0.044922 0.500000
vt 0.044922 0.500000
vt 0.044922 0.500000
vt 0.044922 0.500000
vt 0.044922 0.500000
vt 0.044922 0.500000
vt 0.044922 0.500000
vt 0.044922 0.500000
vt 0.044922 0.500000
vt 0.068359 0.500000
vt 0.068359 0.500000
vt 0.068359 0.500000
vt 0.068359 0.500000
vt 0.044922 0.500000
vt 0.044922 0.500000
vt 0.044922 0.500000
vt 0.044922 0.500000
vt 0.068359 0.500000
vt 0.068359 0.500000
vt 0.068359 0.500000
vt 0.044922 0.500000
vt 0.044922 0.500000
vt 0.044922 0.500000
vt 0.068359 0.500000
vt 0.044922 0.500000
vt 0.044922 0.500000
vt 0.044922 0.500000
vt 0.044922 0.500000
vt 0.044922 0.500000
vt 0.044922 0.500000
vt 0.044922 0.500000
vt 0.044922 0.500000
vt 0.044922 0.500000
vt 0.068359 0.500000
vt 0.068359 0.500000
vt 0.068359 0.500000
vt 0.044922 0.500000
vt 0.044922 0.500000
vt 0.044922 0.500000
vt 0.068359 0.500000
vt 0.044922 0.500000
vt 0.068359 0.500000
vt 0.068359 0.500000
vt 0.068359 0.500000
vt 0.068359 0.500000
vt 0.068359 0.500000
vt 0.564453 0.500000
vt 0.564453 0.500000
vt 0.564453 0.500000
vt 0.068359 0.500000
vt 0.564453 0.500000
vt 0.068359 0.500000
vt 0.068359 0.500000
vt 0.564453 0.500000
vt 0.564453 0.500000
vt 0.564453 0.500000
vt 0.564453 0.500000
vt 0.044922 0.500000
vt 0.044922 0.500000
vt 0.044922 0.500000
vt 0.044922 0.500000
vt 0.044922 0.500000
vt 0.044922 0.500000
vt 0.044922 0.500000
vt 0.044922 0.500000
vn -1.0000 0.0000 0.0000
vn 1.0000 0.0000 0.0000
vn 0.0000 0.0000 1.0000
vn 0.0000 0.0000 -1.0000
vn -0.0000 -1.0000 -0.0000
vn 0.0000 1.0000 0.0000
usemtl palette
s 1
f 1/1/1 2/2/1 3/3/1
f 4/4/1 2/2/1 1/1/1
f 5/5/1 4/6/1 1/7/1
f 6/8/1 4/6/1 5/5/1
f 7/9/1 8/10/1 9/11/1
f 10/12/1 8/10/1 7/9/1
f 11/13/2 12/14/2 13/15/2
f 13/15/2 12/14/2 14/16/2
f 15/17/2 16/18/2 17/19/2
f 17/19/2 16/18/2 18/20/2
f 17/21/2 18/22/2 19/23/2
f 19/23/2 18/22/2 20/24/2
f 21/25/3 22/26/3 23/27/3
f 24/28/3 25/29/3 22/30/3
f 24/31/3 22/26/3 21/25/3
f 26/32/3 25/29/3 24/28/3
f 27/33/3 28/34/3 29/35/3
f 30/36/3 28/34/3 27/33/3
f 31/37/4 32/38/4 33/39/4
f 33/39/4 32/38/4 34/40/4
f 35/41/4 36/42/4 37/43/4
f 36/44/4 38/45/4 39/46/4
f 37/43/4 36/42/4 39/47/4
f 39/46/4 38/45/4 40/48/4
f 41/49/5 42/50/5 43/51/5
f 44/52/5 42/50/5 41/49/5
f 45/53/5 41/49/5 43/51/5
f 45/54/5 44/55/5 41/56/5
f 46/57/5 42/50/5 44/52/5
f 46/58/5 44/55/5 45/54/5
f 47/59/5 45/53/5 43/51/5
f 47/59/5 46/57/5 45/53/5
f 48/60/5 42/50/5 46/57/5
f 48/60/5 46/57/5 47/59/5
f 49/61/6 50/62/6 51/63/6
f 51/63/6 50/62/6 52/64/6
f 53/65/6 54/66/6 55/67/6
f 55/67/6 54/66/6 56/68/6
f 53/65/6 55/67/6 57/69/6
f 56/68/6 54/66/6 58/70/6
f 53/65/6 57/69/6 59/71/6
f 57/69/6 58/70/6 59/71/6
f 58/70/6 54/66/6 60/72/6
f 59/71/6 58/70/6 60/72/6
