# Blender v2.81 (sub 16) OBJ File: ''
# www.blender.org
mtllib Visitor - 1 - Man.mtl
o ObjObject
v -0.650000 0.391176 0.100000
v -0.650000 -0.208824 -0.100000
v -0.650000 -0.208824 0.100000
v -0.650000 0.391176 -0.100000
v -0.350000 -0.108824 0.100000
v -0.350000 -0.708824 -0.100000
v -0.350000 -0.708824 0.100000
v -0.350000 -0.108824 -0.100000
v -0.350000 0.191176 0.100000
v -0.350000 0.191176 -0.100000
v -0.150000 0.791176 0.100000
v -0.150000 0.391176 -0.100000
v -0.150000 0.391176 0.100000
v -0.150000 0.791176 -0.100000
v 0.150000 -0.308824 0.100000
v 0.150000 -0.708824 -0.100000
v 0.150000 -0.708824 0.100000
v 0.150000 -0.308824 -0.100000
v 0.450000 0.191176 0.100000
v 0.450000 -0.208824 -0.100000
v 0.450000 -0.208824 0.100000
v 0.450000 0.191176 -0.100000
v -0.450000 -0.208824 0.100000
v -0.450000 -0.208824 -0.100000
v -0.450000 0.191176 0.100000
v -0.450000 0.191176 -0.100000
v -0.150000 -0.708824 0.100000
v -0.150000 -0.708824 -0.100000
v -0.150000 -0.308824 0.100000
v -0.150000 -0.308824 -0.100000
v 0.150000 0.391176 0.100000
v 0.150000 0.391176 -0.100000
v 0.150000 0.791176 0.100000
v 0.150000 0.791176 -0.100000
v 0.350000 -0.708824 0.100000
v 0.350000 -0.708824 -0.100000
v 0.350000 -0.108824 0.100000
v 0.350000 -0.108824 -0.100000
v 0.350000 0.191176 0.100000
v 0.350000 0.191176 -0.100000
v 0.650000 -0.208824 0.100000
v 0.650000 -0.208824 -0.100000
v 0.650000 0.391176 0.100000
v 0.650000 0.391176 -0.100000
v -0.450000 -0.208824 0.100000
v -0.650000 0.391176 0.100000
v -0.650000 -0.208824 0.100000
v -0.450000 0.191176 0.100000
v -0.450000 0.391176 0.100000
v -0.350000 0.191176 0.100000
v -0.150000 -0.708824 0.100000
v -0.350000 -0.108824 0.100000
v -0.350000 -0.708824 0.100000
v -0.150000 -0.308824 0.100000
v -0.150000 0.391176 0.100000
v 0.150000 -0.308824 0.100000
v 0.150000 0.391176 0.100000
v -0.150000 0.791176 0.100000
v 0.150000 0.791176 0.100000
v 0.350000 -0.708824 0.100000
v 0.150000 -0.708824 0.100000
v 0.350000 -0.108824 0.100000
v 0.350000 0.191176 0.100000
v 0.450000 0.191176 0.100000
v 0.450000 0.391176 0.100000
v 0.650000 -0.208824 0.100000
v 0.450000 -0.208824 0.100000
v 0.650000 0.391176 0.100000
v -0.650000 -0.208824 -0.100000
v -0.650000 0.391176 -0.100000
v -0.450000 -0.208824 -0.100000
v -0.450000 0.191176 -0.100000
v -0.450000 0.391176 -0.100000
v -0.350000 0.191176 -0.100000
v -0.350000 -0.708824 -0.100000
v -0.350000 -0.108824 -0.100000
v -0.150000 -0.708824 -0.100000
v -0.150000 -0.308824 -0.100000
v -0.150000 0.391176 -0.100000
v 0.150000 -0.308824 -0.100000
v 0.150000 0.391176 -0.100000
v -0.150000 0.791176 -0.100000
v 0.150000 0.791176 -0.100000
v 0.150000 -0.708824 -0.100000
v 0.350000 -0.708824 -0.100000
v 0.350000 -0.108824 -0.100000
v 0.350000 0.191176 -0.100000
v 0.450000 0.191176 -0.100000
v 0.450000 0.391176 -0.100000
v 0.450000 -0.208824 -0.100000
v 0.650000 -0.208824 -0.100000
v 0.650000 0.391176 -0.100000
v -0.350000 -0.708824 -0.100000
v -0.150000 -0.708824 0.100000
v -0.350000 -0.708824 0.100000
v -0.150000 -0.708824 -0.100000
v 0.150000 -0.708824 -0.100000
v 0.350000 -0.708824 0.100000
v 0.150000 -0.708824 0.100000
v 0.350000 -0.708824 -0.100000
v -0.150000 -0.308824 -0.100000
v 0.150000 -0.308824 0.100000
v -0.150000 -0.308824 0.100000
v 0.150000 -0.308824 -0.100000
v -0.650000 -0.208824 -0.100000
v -0.450000 -0.208824 0.100000
v -0.650000 -0.208824 0.100000
v -0.450000 -0.208824 -0.100000
v 0.450000 -0.208824 -0.100000
v 0.650000 -0.208824 0.100000
v 0.450000 -0.208824 0.100000
v 0.650000 -0.208824 -0.100000
v -0.450000 0.191176 -0.100000
v -0.350000 0.191176 0.100000
v -0.450000 0.191176 0.100000
v -0.350000 0.191176 -0.100000
v 0.350000 0.191176 -0.100000
v 0.450000 0.191176 0.100000
v 0.350000 0.191176 0.100000
v 0.450000 0.191176 -0.100000
v -0.650000 0.391176 0.100000
v -0.450000 0.391176 0.100000
v -0.650000 0.391176 -0.100000
v -0.150000 0.391176 0.100000
v -0.450000 0.391176 -0.100000
v -0.150000 0.391176 -0.100000
v 0.150000 0.391176 0.100000
v 0.450000 0.391176 0.100000
v 0.150000 0.391176 -0.100000
v 0.650000 0.391176 0.100000
v 0.450000 0.391176 -0.100000
v 0.650000 0.391176 -0.100000
v -0.150000 0.791176 0.100000
v 0.150000 0.791176 0.100000
v -0.150000 0.791176 -0.100000
v 0.150000 0.791176 -0.100000
vt 0.341797 0.500000
vt 0.341797 0.500000
vt 0.341797 0.500000
vt 0.341797 0.500000
vt 0.990234 0.500000
vt 0.990234 0.500000
vt 0.990234 0.500000
vt 0.990234 0.500000
vt 0.724609 0.500000
vt 0.724609 0.500000
vt 0.724609 0.500000
vt 0.724609 0.500000
vt 0.341797 0.500000
vt 0.341797 0.500000
vt 0.341797 0.500000
vt 0.341797 0.500000
vt 0.990234 0.500000
vt 0.990234 0.500000
vt 0.990234 0.500000
vt 0.990234 0.500000
vt 0.341797 0.500000
vt 0.341797 0.500000
vt 0.341797 0.500000
vt 0.341797 0.500000
vt 0.341797 0.500000
vt 0.341797 0.500000
vt 0.341797 0.500000
vt 0.341797 0.500000
vt 0.990234 0.500000
vt 0.990234 0.500000
vt 0.990234 0.500000
vt 0.990234 0.500000
vt 0.341797 0.500000
vt 0.341797 0.500000
vt 0.341797 0.500000
vt 0.341797 0.500000
vt 0.990234 0.500000
vt 0.990234 0.500000
vt 0.990234 0.500000
vt 0.990234 0.500000
vt 0.724609 0.500000
vt 0.724609 0.500000
vt 0.724609 0.500000
vt 0.724609 0.500000
vt 0.341797 0.500000
vt 0.341797 0.500000
vt 0.341797 0.500000
vt 0.341797 0.500000
vt 0.341797 0.500000
vt 0.341797 0.500000
vt 0.341797 0.500000
vt 0.341797 0.500000
vt 0.341797 0.500000
vt 0.724609 0.500000
vt 0.724609 0.500000
vt 0.724609 0.500000
vt 0.990234 0.500000
vt 0.990234 0.500000
vt 0.990234 0.500000
vt 0.990234 0.500000
vt 0.724609 0.500000
vt 0.724609 0.500000
vt 0.990234 0.500000
vt 0.724609 0.500000
vt 0.341797 0.500000
vt 0.341797 0.500000
vt 0.341797 0.500000
vt 0.341797 0.500000
vt 0.990234 0.500000
vt 0.990234 0.500000
vt 0.990234 0.500000
vt 0.724609 0.500000
vt 0.724609 0.500000
vt 0.724609 0.500000
vt 0.724609 0.500000
vt 0.341797 0.500000
vt 0.341797 0.500000
vt 0.341797 0.500000
vt 0.341797 0.500000
vt 0.341797 0.500000
vt 0.341797 0.500000
vt 0.341797 0.500000
vt 0.341797 0.500000
vt 0.341797 0.500000
vt 0.341797 0.500000
vt 0.724609 0.500000
vt 0.724609 0.500000
vt 0.724609 0.500000
vt 0.990234 0.500000
vt 0.990234 0.500000
vt 0.990234 0.500000
vt 0.990234 0.500000
vt 0.724609 0.500000
vt 0.724609 0.500000
vt 0.990234 0.500000
vt 0.724609 0.500000
vt 0.341797 0.500000
vt 0.341797 0.500000
vt 0.341797 0.500000
vt 0.341797 0.500000
vt 0.990234 0.500000
vt 0.990234 0.500000
vt 0.990234 0.500000
vt 0.724609 0.500000
vt 0.724609 0.500000
vt 0.724609 0.500000
vt 0.724609 0.500000
vt 0.341797 0.500000
vt 0.341797 0.500000
vt 0.341797 0.500000
vt 0.341797 0.500000
vt 0.341797 0.500000
vt 0.990234 0.500000
vt 0.990234 0.500000
vt 0.990234 0.500000
vt 0.990234 0.500000
vt 0.990234 0.500000
vt 0.990234 0.500000
vt 0.990234 0.500000
vt 0.990234 0.500000
vt 0.990234 0.500000
vt 0.990234 0.500000
vt 0.990234 0.500000
vt 0.990234 0.500000
vt 0.341797 0.500000
vt 0.341797 0.500000
vt 0.341797 0.500000
vt 0.341797 0.500000
vt 0.341797 0.500000
vt 0.341797 0.500000
vt 0.341797 0.500000
vt 0.341797 0.500000
vt 0.724609 0.500000
vt 0.724609 0.500000
vt 0.724609 0.500000
vt 0.724609 0.500000
vt 0.724609 0.500000
vt 0.724609 0.500000
vt 0.724609 0.500000
vt 0.724609 0.500000
vt 0.341797 0.500000
vt 0.341797 0.500000
vt 0.341797 0.500000
vt 0.724609 0.500000
vt 0.724609 0.500000
vt 0.724609 0.500000
vt 0.341797 0.500000
vt 0.724609 0.500000
vt 0.724609 0.500000
vt 0.724609 0.500000
vt 0.724609 0.500000
vt 0.341797 0.500000
vt 0.341797 0.500000
vt 0.341797 0.500000
vt 0.724609 0.500000
vt 0.341797 0.500000
vt 0.341797 0.500000
vt 0.341797 0.500000
vt 0.341797 0.500000
vt 0.341797 0.500000
vn -1.0000 -0.0000 0.0000
vn 1.0000 -0.0000 0.0000
vn 0.0000 -0.0000 1.0000
vn 0.0000 0.0000 -1.0000
vn 0.0000 -1.0000 0.0000
vn 0.0000 1.0000 0.0000
usemtl palette
s 1
f 1/1/1 2/2/1 3/3/1
f 4/4/1 2/2/1 1/1/1
f 5/5/1 6/6/1 7/7/1
f 8/8/1 6/6/1 5/5/1
f 9/9/1 8/10/1 5/11/1
f 10/12/1 8/10/1 9/9/1
f 11/13/1 12/14/1 13/15/1
f 14/16/1 12/14/1 11/13/1
f 15/17/1 16/18/1 17/19/1
f 18/20/1 16/18/1 15/17/1
f 19/21/1 20/22/1 21/23/1
f 22/24/1 20/22/1 19/21/1
f 23/25/2 24/26/2 25/27/2
f 25/27/2 24/26/2 26/28/2
f 27/29/2 28/30/2 29/31/2
f 29/31/2 28/30/2 30/32/2
f 31/33/2 32/34/2 33/35/2
f 33/35/2 32/34/2 34/36/2
f 35/37/2 36/38/2 37/39/2
f 37/39/2 36/38/2 38/40/2
f 37/41/2 38/42/2 39/43/2
f 39/43/2 38/42/2 40/44/2
f 41/45/2 42/46/2 43/47/2
f 43/47/2 42/46/2 44/48/2
f 45/49/3 46/50/3 47/51/3
f 48/52/3 46/50/3 45/49/3
f 49/53/3 46/50/3 48/52/3
f 50/54/3 49/55/3 48/56/3
f 51/57/3 52/58/3 53/59/3
f 54/60/3 52/58/3 51/57/3
f 55/61/3 50/54/3 52/62/3
f 55/61/3 49/55/3 50/54/3
f 56/63/3 52/58/3 54/60/3
f 57/64/3 55/61/3 52/62/3
f 57/65/3 58/66/3 55/67/3
f 59/68/3 58/66/3 57/65/3
f 60/69/3 56/63/3 61/70/3
f 62/71/3 52/58/3 56/63/3
f 62/71/3 56/63/3 60/69/3
f 62/72/3 57/64/3 52/62/3
f 63/73/3 57/64/3 62/72/3
f 64/74/3 57/64/3 63/73/3
f 65/75/3 57/64/3 64/74/3
f 66/76/3 64/77/3 67/78/3
f 66/76/3 65/79/3 64/77/3
f 68/80/3 65/79/3 66/76/3
f 69/81/4 70/82/4 71/83/4
f 71/83/4 70/82/4 72/84/4
f 72/84/4 70/82/4 73/85/4
f 72/86/4 73/87/4 74/88/4
f 75/89/4 76/90/4 77/91/4
f 77/91/4 76/90/4 78/92/4
f 76/93/4 74/88/4 79/94/4
f 74/88/4 73/87/4 79/94/4
f 78/92/4 76/90/4 80/95/4
f 76/93/4 79/94/4 81/96/4
f 79/97/4 82/98/4 81/99/4
f 81/99/4 82/98/4 83/100/4
f 84/101/4 80/95/4 85/102/4
f 80/95/4 76/90/4 86/103/4
f 85/102/4 80/95/4 86/103/4
f 76/93/4 81/96/4 86/104/4
f 86/104/4 81/96/4 87/105/4
f 87/105/4 81/96/4 88/106/4
f 88/106/4 81/96/4 89/107/4
f 90/108/4 88/109/4 91/110/4
f 88/109/4 89/111/4 91/110/4
f 91/110/4 89/111/4 92/112/4
f 93/113/5 94/114/5 95/115/5
f 96/116/5 94/114/5 93/113/5
f 97/117/5 98/118/5 99/119/5
f 100/120/5 98/118/5 97/117/5
f 101/121/5 102/122/5 103/123/5
f 104/124/5 102/122/5 101/121/5
f 105/125/5 106/126/5 107/127/5
f 108/128/5 106/126/5 105/125/5
f 109/129/5 110/130/5 111/131/5
f 112/132/5 110/130/5 109/129/5
f 113/133/5 114/134/5 115/135/5
f 116/136/5 114/134/5 113/133/5
f 117/137/5 118/138/5 119/139/5
f 120/140/5 118/138/5 117/137/5
f 121/141/6 122/142/6 123/143/6
f 122/144/6 124/145/6 125/146/6
f 123/143/6 122/142/6 125/147/6
f 125/146/6 124/145/6 126/148/6
f 127/149/6 128/150/6 129/151/6
f 128/152/6 130/153/6 131/154/6
f 129/151/6 128/150/6 131/155/6
f 131/154/6 130/153/6 132/156/6
f 133/157/6 134/158/6 135/159/6
f 135/159/6 134/158/6 136/160/6
